<?xml version="1.0" standalone="no"?><!DOCTYPE svg PUBLIC "-//W3C//DTD SVG 1.1//EN" "http://www.w3.org/Graphics/SVG/1.1/DTD/svg11.dtd"><svg t="1740035074847" class="icon" viewBox="0 0 1024 1024" version="1.1" xmlns="http://www.w3.org/2000/svg" p-id="3560" xmlns:xlink="http://www.w3.org/1999/xlink" width="200" height="200"><path d="M207.85131 533.483161s-27.280012 0.972931-50.943298-8.968797c-23.667079-9.937935-56.069679-18.997767-50.708125-53.524506 3.300001-21.230009 54.340023-10.322935 54.340024-10.322935s37.367775 13.795523 62.180371 12.392074" fill="#F4D6B9" p-id="3561"></path><path d="M207.85131 537.039197c-26.53846 0.756724-51.392781-7.840348-75.141411-18.872594-10.869143-5.046726-20.801388-12.048798-26.693977-22.694148-4.623795-8.348624-6.747934-23.735355-0.491208-31.776738 10.96966-14.100868 36.800706-9.700866 51.957954-7.203106 22.199147 3.662243 41.932777 13.778454 65.237614 13.01035 4.589657-0.151724 4.574485 6.960348 0 7.112072-34.687946 1.145518-66.52727-20.939837-101.385906-14.026903-14.34173 2.844829-14.318972 17.930008-9.175521 29.294151 4.821037 10.658625 16.577766 16.630869 26.627598 21.300182 21.76294 10.108625 44.815537 17.436904 69.064857 16.744662 4.589657-0.132759 4.578278 6.98121 0 7.112072" fill="#1D1D1D" p-id="3562"></path><path d="M454.581417 72.325031s-0.593621-62.231579-33.783291-61.637957-19.55725 72.306066-19.55725 72.306065" fill="#B7D9D5" p-id="3563"></path><path d="M451.025381 72.325031c-0.257931-19.079319-6.416037-64.626924-34.761912-57.366921-21.415871 5.488623-14.491558 51.586229-11.595522 67.08865 0.840173 4.48345-6.012072 6.397072-6.856038 1.892759-3.996036-21.37794-10.317246-68.952961 18.282767-76.277447 33.085359-8.47759 41.743121 42.473294 42.042777 64.662959 0.06069 4.589657-7.051382 4.582071-7.112072 0" fill="#1D1D1D" p-id="3564"></path><path d="M439.888824 934.867644s-46.822089 80.895552-72.000721 65.046063c-25.180528-15.84949 32.465186-84.112105 32.465187-84.112105" fill="#F4D6B9" p-id="3565"></path><path d="M442.959343 936.661783c-8.365693 14.394834-18.032422 28.154322-28.607599 41.003466-10.24897 12.448971-28.560185 33.84967-46.981399 26.030184-18.358629-7.792934-5.727589-34.972429 0.261724-46.499676 8.1419-15.661731 18.851732-30.407427 30.208289-43.908984 2.956725-3.516208 7.957934 1.543794 5.02776 5.027761-9.112935 10.833108-57.095714 71.704858-30.102081 79.842965 15.802076 4.76414 35.571739-23.879493 43.247087-33.969152a303.042544 303.042544 0 0 0 20.805182-31.114841c2.302415-3.963795 8.452935-0.385 6.141037 3.588277" fill="#1D1D1D" p-id="3566"></path><path d="M845.745378 781.753268c31.410703-3.556036 31.410703-7.705693 47.413814-3.556036s59.267267 30.818979 42.672432 43.266053-18.373801 16.594835-40.301741 13.038799-67.564684-13.63242-67.564685-13.63242" fill="#B7D9D5" p-id="3567"></path><path d="M845.745378 778.197232c20.955009-2.503449 37.959499-8.612245 58.05537 0.238966 12.752419 5.617589 41.259501 20.450526 39.137258 37.938637-1.024138 8.454831-13.304316 14.641386-19.572422 18.690525-9.350004 6.032934-20.714147 4.206554-31.050358 2.48638-21.893803-3.631898-43.628295-8.47759-65.296407-13.253109-4.477761-0.986207-2.577415-7.842245 1.892759-6.856037a2339.528422 2339.528422 0 0 0 43.300191 9.116728c11.125177 2.236035 22.419148 4.790692 33.758635 5.568278 11.341384 0.78138 20.628802-7.343451 28.692944-14.349316 11.172591-9.706556-32.831221-32.751566-39.258638-35.158291-15.824834-5.922934-33.61829 0.771897-49.659332 2.689311-4.546036 0.542414-4.49483-6.573451 0-7.112072" fill="#1D1D1D" p-id="3568"></path><path d="M84.503326 263.539252c0 56.299162 48.085193 101.939699 107.399874 101.939699 59.312784 0 107.396081-45.640537 107.396081-101.939699s-48.085193-101.939699-107.396081-101.9397c-59.314681 0-107.399874 45.640537-107.399874 101.9397" fill="#FFFFFF" p-id="3569"></path><path d="M88.059362 263.539252c0.927414 56.471748 48.913987 97.573835 103.843838 98.383663 54.935541 0.811724 102.935389-43.123812 103.840045-98.383663 0.927414-56.471748-50.317435-97.594697-103.840045-98.383664-54.935541-0.811724-102.935389 43.123812-103.843838 98.383664-0.073966 4.582071-7.187934 4.589657-7.112072 0 0.83638-50.91485 37.803982-91.963833 86.757796-102.973321 49.46209-11.121384 102.207113 13.51673 124.927813 58.707784 22.521561 44.790881 6.008278 97.71987-32.472773 127.417986-39.947086 30.822772-100.820733 29.388978-139.698164-2.456035-24.571735-20.130009-38.991224-48.855193-39.514672-80.696414-0.075862-4.589657 7.038106-4.582071 7.112072 0" fill="#1D1D1D" p-id="3570"></path><path d="M84.503326 262.393734c0 14.844317 12.382592 26.877943 27.657426 26.877942s27.655529-12.031729 27.655529-26.877942-12.382592-26.877943-27.655529-26.877943-27.657426 12.033626-27.657426 26.877943" fill="#1D1D1D" p-id="3571"></path><path d="M105.450749 260.377698c0 4.834312 3.929657 8.750693 8.782935 8.750694s8.788624-3.916381 8.788624-8.750694c0-4.830519-3.935347-8.750693-8.788624-8.750693s-8.782935 3.920174-8.782935 8.750693" fill="#FFFFFF" p-id="3572"></path><path d="M816.436055 278.57512c-2.154484-30.836048-52.155195-137.500059-137.500059-175.43111s-118.534534-37.931051-201.508707-45.043123-208.62078 66.379339-232.327687 97.198318-40.301742 58.785543-45.043123 100.511595c-4.741381 41.729846-4.741381 60.695371-11.853453 103.367803s2.370691 206.250089 28.448288 267.888047c17.241559 40.755018 43.81226 141.626958 101.645734 220.373715 29.631737 40.347259 67.46796 74.885377 116.457808 92.557454 144.612131 52.155195 229.974065 22.185872 251.293212 21.336216 61.391406-2.446553 74.138135-20.082595 144.612131-104.31039 42.643984-50.96985 49.460194-111.991428 49.460194-154.688515 0-51.857436-71.12072-174.837489-73.491411-245.958209-4.216036-126.484882 15.663627-94.038661 9.807073-177.801801" fill="#B7D9D5" p-id="3573"></path><path d="M812.880019 278.57512c-1.314311-15.386731-8.460521-30.763979-14.971385-44.502605-10.305867-21.749665-23.416734-42.247604-38.369155-61.078475-16.869835-21.248975-36.867085-40.074155-59.76037-54.685196-26.314667-16.792076-57.575542-27.680184-87.269866-36.848119-25.222252-7.789141-51.18416-12.043109-77.390723-14.777938-27.225012-2.842932-55.470369-6.952762-82.847104-4.938622-52.966919 3.897415-105.442632 28.050012-150.590065 54.677609-17.008283 10.032763-34.026049 21.118113-48.244504 34.925015-18.60518 18.074146-33.195359 44.565192-41.82088 68.767099-10.571384 29.662082-10.544832 62.552096-13.696902 93.604351-2.256898 22.20863-7.003969 44.136571-8.03759 66.445718-2.126035 45.972434 1.638621 92.639005 6.998279 138.266266 2.88845 24.577424 6.734658 49.109332 12.433798 73.199342 4.253967 17.973628 11.159315 34.621567 17.512766 51.880195 40.351052 109.687116 84.066588 241.713725 201.783708 290.352711 55.466576 22.919837 118.062292 34.456567 178.027491 33.123291 17.746042-0.396379 35.420015-2.262587 52.934678-5.109313 9.662935-1.572242 19.274663-3.783622 29.077943-4.212243 18.415525-0.811724 36.508636-3.772243 52.731747-12.917419 18.184146-10.24897 32.580876-26.860874 46.217089-42.306398 22.180182-25.123632 46.036916-50.649332 62.239165-80.121759 14.838627-26.986046 22.290182-57.621059 25.303804-88.083486 2.116553-21.393113 1.871897-41.452949-3.730519-62.241061-6.362934-23.617769-15.6788-46.46933-24.585011-69.208996-17.979318-45.900365-40.481914-94.148661-43.649156-144.020406-2.213277-34.83967-1.739139-71.173824 4.997415-105.556425 4.942416-25.224149 6.440692-48.836228 4.705347-74.633136-0.309138-4.580174 6.806727-4.54983 7.112072 0 1.16638 17.313628 1.841553 34.748636-0.407758 52.005367-1.462242 11.208626-4.284312 22.180182-6.15621 33.320532-7.787245 46.323296-6.791555 97.177456 6.006382 142.349544 14.413799 50.861746 37.739499 98.647284 54.275541 148.784547 14.394834 43.645364 11.426729 88.800383-1.794139 132.641092-8.959314 29.715185-24.87139 55.267438-44.644847 78.92124-18.087422 21.633975-35.814498 43.86726-55.982438 63.629338-11.95966 11.726384-25.341735 21.613113-41.10588 27.518978-15.269145 5.727589-31.112944 5.666899-47.064848 7.387072-30.24053 3.254484-59.132612 9.24759-89.845383 9.075004-58.855715-0.33569-120.408328-13.35173-174.334903-36.78174-110.443841-47.990366-157.434723-175.341972-194.777842-280.384431-6.114485-17.196042-13.579316-33.940704-18.586215-51.502781-6.325003-22.172596-10.099142-45.098123-13.321385-67.894685-6.655003-47.061055-10.231901-94.922455-9.862074-142.46144 0.140345-18.364318 2.359311-35.787946 5.029658-53.920886 4.418967-29.999668 5.344485-60.401405 9.704659-90.389694 6.668279-45.896572 31.40691-90.844867 68.516754-119.069362 38.757948-29.478116 84.96745-51.516057 131.322987-65.958304 23.323803-7.269486 47.798814-12.088626 72.306066-11.73966 27.930529 0.394483 56.670886 4.035864 84.37383 7.616555 33.982428 4.388623 66.496925 13.636213 98.336249 26.195184 34.684153 13.683627 65.095373 30.424496 91.768488 56.761921 22.55001 22.26363 41.067949 48.819159 55.796575 76.798998 9.139487 17.357249 18.755008 37.248292 20.446733 57.097611 0.39069 4.572588-6.725175 4.534657-7.112072 0" fill="#1D1D1D" p-id="3574"></path><path d="M746.17637 934.069196s24.892252 75.270377-13.038799 79.418137-41.487087-69.343651-41.487087-69.34365" fill="#F4D6B9" p-id="3575"></path><path d="M749.605337 933.124713c7.527417 22.988113 20.524492 78.450896-15.521386 83.791587-35.368808 5.240175-44.690364-47.630021-45.989503-72.772617-0.237069-4.585864 6.875003-4.561209 7.112072 0 1.124656 21.761044 8.443452 70.143996 39.031052 65.611235 28.453978-4.216036 14.142592-57.537611 8.509831-74.741239-1.431897-4.371554 5.437416-6.228279 6.857934-1.888966" fill="#1D1D1D" p-id="3576"></path><path d="M753.734132 923.780398s-5.60052 28.152426-17.165697 35.658981c0 0-2.086208-20.150871-4.060519-20.93794-1.978104-0.790862-28.846564 21.332423-24.894149 24.493976 3.950519 3.16345-22.967251-13.996558-22.940699-21.814147" fill="#B7D9D5" p-id="3577"></path><path d="M757.161202 924.724881c-2.738622 13.361213-7.493279 29.260013-18.802422 37.78312-2.391553 1.807415-5.101726-0.730173-5.350174-3.066725a243.663381 243.663381 0 0 0-1.34276-10.41397 89.295383 89.295383 0 0 0-1.232759-6.427417c-0.517759-2.311898 3.062932-1.086725-0.37931 1.272587-2.958622 2.031208-19.198801 17.249145-19.566733 16.926731 0.88 0.768104 1.323794 2.351725 0.916035 3.459312l-0.022759 0.058793c-0.83069 2.256898-3.040174 3.188105-5.225002 2.126036-8.346728-4.062416-23.462251-14.461213-24.913114-24.317597-0.661897-4.485347 6.192244-6.412244 6.857934-1.888966 1.149311 7.802417 14.975179 16.820524 21.647251 20.065525l-5.225003 2.124139c-0.72069 1.957242 1.416725 4.456898-0.32431 1.849139-0.495-0.741552-0.481724-1.657587-0.510173-2.505346-0.081552-2.49776 2.129829-5.145347 3.622416-6.890175 5.572071-6.512761 12.23466-12.118971 19.15518-17.146732 12.997075-9.446728 12.79035 13.524316 13.655179 21.707941l-5.348279-3.070519c9.541556-7.197417 13.228454-22.309148 15.530869-33.534842 0.921725-4.491036 7.775865-2.586898 6.857934 1.888966" fill="#1D1D1D" p-id="3578"></path><path d="M446.441413 894.911075c48.995538-26.348804 50.12778-65.787615 11.853454-114.853325-28.127771-36.062947-60.056233-71.909686-77.597448-175.43111-9.323452-55.018989-63.580027-119.894362-113.895566-116.051947-50.317435 3.840519-73.978825 57.283473-55.546231 108.467633 18.434491 51.18416 85.597106 247.684072 133.919368 273.03529 0 0 56.703128 48.798297 101.266423 24.833459" fill="#CFE9EC" p-id="3579"></path><path d="M328.684466 288.057883c0 66.775718 57.814508 120.905225 129.128676 120.905224 71.317962 0 129.132469-54.129506 129.13247-120.905224s-57.814508-120.905225-129.13247-120.905225c-71.314169 0-129.128676 54.129506-129.128676 120.905225" fill="#FFFFFF" p-id="3580"></path><path d="M332.240502 288.057883c0.826897 59.16675 46.222779 104.955218 102.942975 115.464015 57.983301 10.74397 119.583327-21.121906 141.114889-76.457619 21.376044-54.933644-7.079831-114.233153-56.964852-141.334889-52.121057-28.315529-119.64781-15.481558-158.900759 28.224495-18.235353 20.300698-27.81484 47.004158-28.192253 74.103998-0.064483 4.582071-7.176555 4.589657-7.112072 0 0.711207-50.893987 32.812256-94.222627 79.137448-113.874704 47.400538-20.10725 103.371596-10.840694 142.738337 21.738285 38.757948 32.074497 53.046575 85.917623 36.152085 133.033678-16.966559 47.322779-63.03951 77.517792-111.720221 82.898311-73.940894 8.170348-145.25127-48.028297-146.307649-123.79557-0.064483-4.589657 7.047589-4.582071 7.112072 0" fill="#2B2B2A" p-id="3581"></path><path d="M378.326729 270.672186c0 20.947423 18.749318 37.931051 41.879673 37.93105s41.88157-16.983628 41.88157-37.93105-18.749318-37.931051-41.879674-37.931051-41.88157 16.983628-41.881569 37.931051" fill="#1D1D1D" p-id="3582"></path><path d="M420.206402 259.653215c0 6.086037 4.953795 11.01897 11.064487 11.018971s11.064488-4.932933 11.064488-11.018971-4.955692-11.01897-11.064488-11.01897-11.064488 4.932933-11.064487 11.01897" fill="#FFFFFF" p-id="3583"></path><path d="M711.801355 169.523349l46.624848-59.267267s23.310527-37.709154-13.038799-52.636919c-36.353119-14.927765-61.245371 13.916903-63.219682 16.680179-1.974311 2.76707-31.215358 47.021227-31.215359 47.021228" fill="#B7D9D5" p-id="3584"></path><path d="M709.286526 167.00852c11.936902-15.174317 23.873803-30.346737 35.808809-45.52295 9.725521-12.359833 19.538284-23.263113 16.702938-41.261397-3.210863-20.378457-30.96691-25.53708-47.573124-22.102424-10.597936 2.194311-22.358458 9.226728-28.986909 17.973629-11.301557 14.9088-20.900009 31.408807-31.215358 47.017434-2.516725 3.806381-8.678624 0.248448-6.141037-3.590174 10.842591-16.408973 20.520699-35.488291 33.754842-50.068987 9.410694-10.360867 22.620182-17.163801 36.38536-19.193112 15.45311-2.275863 37.109844 3.199484 46.023641 17.152421 10.127591 15.855179 4.301381 35.939671-6.562072 49.746573L714.314287 172.036281c-2.831553 3.60345-7.828969-1.467932-5.027761-5.027761" fill="#1D1D1D" p-id="3585"></path><path d="M717.728082 94.05573s0.246552 21.336216-9.359487 30.818979-18.299835 16.198455-23.041217 12.642419 8.297417-29.633633 13.831558-32.79329c5.530347-3.159657 9.086383-11.853453 18.569146-10.668108" fill="#1E1E1F" p-id="3586"></path><path d="M721.284118 94.05573c0.045517 10.656729-2.040691 22.521561-8.540176 31.181221-3.172932 4.233105-25.191907 26.018804-30.955531 13.567936-4.079485-8.809487 4.236898-21.990527 8.690004-29.225874 2.812587-4.568795 6.285175-6.954658 10.066901-10.53535 5.255347-4.97845 9.52828-8.883452 17.182766-8.543969 4.568795 0.201035 4.587761 7.313107 0 7.112072-6.573451-0.292069-15.326041 7.645003-19.344836 12.949661-4.623795 6.103106-8.115348 13.655178-10.082073 21.019492-1.998966 7.478107 8.889142-1.369311 10.56759-2.744312 5.249657-4.305174 9.674315-8.769659 12.128454-15.162937 2.342242-6.116382 3.203277-13.088109 3.174829-19.61794-0.018966-4.587761 7.093107-4.583967 7.112072 0" fill="#2B2B2A" p-id="3587"></path><path d="M188.881992 282.089432c0 17.260525 19.458629 31.255186 43.461398 31.255186s43.465191-13.994661 43.465191-31.255186-19.460526-31.255186-43.465191-31.255186-43.461398 13.994661-43.461398 31.255186" fill="#9D9080" p-id="3588"></path><path d="M192.438028 282.089432c2.21138 37.360189 77.603137 37.360189 79.814517 0 1.16069-19.629319-25.025011-27.243977-39.909155-27.69915-16.68018-0.510173-38.780706 8.716555-39.905362 27.69915-0.267414 4.555519-7.381382 4.583967-7.112072 0 2.757587-46.607779 91.281074-46.607779 94.038661 0 1.407242 23.788459-28.273805 34.23467-47.021227 34.811222-20.970181 0.641035-45.659502-11.834488-47.017434-34.811222-0.26931-4.583967 6.844658-4.555519 7.112072 0" fill="#1D1D1D" p-id="3589"></path><path d="M264.268059 355.787567v58.673646s3.269657 8.158969-19.604664 9.327246c-22.876217 1.16638-25.489666 0-25.489666 0s-11.758626 3.882243-16.335007-15.155352c-4.578278-19.039491-16.342593-54.789506-16.342593-54.789506l77.77193 1.943966z" fill="#FFFFFF" p-id="3590"></path><path d="M267.825991 355.787567v51.967436c0 4.841899 0.984311 6.342072-0.299655 10.296384-2.71207 8.363797-15.993628 8.781038-22.862941 9.293108-7.984486 0.595517-18.428801 2.110863-26.392425-0.113794 3.71914 1.037414-2.194311 0.428621-3.529484 0.263621-3.92776-0.498793-6.943279-2.66276-9.58328-5.498106-8.215866-8.828452-9.564314-26.908287-12.928799-38.120706a1174.620334 1174.620334 0 0 0-9.160349-29.085529c-0.716897-2.177242 1.192932-4.559312 3.427071-4.502416l77.773826 1.943966c4.578278 0.113793 4.589657 7.225865 0 7.112072l-77.773826-1.943966c1.145518-1.500173 2.285346-3.002243 3.43276-4.502416 5.936209 18.091215 11.773798 36.298119 16.3388 54.789506 1.361725 5.517071 4.066209 12.750523 10.757246 12.866213 1.081035 0.018966 2.033104-0.578449 3.138794-0.180173 5.613796 2.033104 14.470696 0.284483 20.190699 0.062587 5.152933-0.201035 20.359492 0.123276 20.359491-6.091727v-58.55606c0-4.587761 7.112072-4.587761 7.112072 0" fill="#1D1D1D" p-id="3591"></path><path d="M235.053563 305.026338s19.923284-9.378452 40.466742-4.242588c20.551043 5.135864 44.650536 26.470184 42.672432 47.015538-1.972415 20.551043-22.914148 34.378808-35.56036 34.775187-4.767933 0.146035-15.936731 4.343105-42.04657 4.343106-23.357941 0-27.264839-2.209484-41.092604-2.765174-17.706215-0.713104-30.255703-14.224144-29.86122-39.116396s17.387594-37.536568 35.560361-36.351223 29.86122-3.65845 29.861219-3.65845" fill="#F4D6B9" p-id="3592"></path><path d="M233.259425 301.95582c32.664324-14.823455 81.049173 0.293966 88.246589 39.023465 3.148277 16.960869-9.822246 32.541049-23.47363 40.485707-11.269315 6.554486-28.685357 7.31121-41.388466 8.420693-20.067422 1.750518-39.820017-0.834483-59.767957-2.378277-17.046214-1.323794-27.08277-15.456903-30.003461-31.095875-3.220346-17.268111 1.735346-35.289153 16.270524-45.682261 14.719144-10.52397 34.703118-2.732932 50.966056-9.131901 4.271036-1.680346 6.106899 5.198451 1.888967 6.857934-10.594142 4.172416-22.356561 4.020691-33.51967 3.71345-20.423974-0.559483-29.428806 18.956043-29.252426 36.516223 0.185862 18.159491 10.654832 31.13191 28.90915 32.044152 14.394834 0.72069 28.408461 2.727243 42.907605 2.59069 24.867597-0.233276 58.960025-2.755691 68.499684-30.204495 6.723279-19.344836-12.983799-36.548464-27.890701-44.680882-14.62242-7.9769-33.836394-7.131038-48.80209-0.33569-4.142071 1.879484-7.76259-4.248278-3.590174-6.142933" fill="#1D1D1D" p-id="3593"></path><path d="M603.883722 602.174397s4.618105 24.628631 0 47.719159c-4.618105 23.088631-18.472422 56.951576-46.179157 50.797263-27.708633-6.158106-12.312419-46.949158-12.31242-46.949158s8.466211-33.094842 3.848106-55.415369" fill="#F4D6B9" p-id="3594"></path><path d="M607.312689 601.229914c4.26914 23.744838 2.854312 49.35778-6.685347 71.702962-7.874486 18.442077-26.669322 41.124845-49.422263 29.286565-15.987938-8.322073-14.967593-27.788288-11.214315-42.955019 4.855175-19.621733 9.425866-39.643638 5.818623-59.993646-0.792759-4.481554 6.057589-6.400865 6.859831-1.888967 3.26207 18.394663 0.686552 37.494844-3.432761 55.56899-2.395346 10.52397-5.998796 20.16794-3.774139 31.228634 2.346035 11.650522 14.385351 15.252076 24.841045 12.839661 11.52535-2.655174 18.485698-15.202765 23.041217-25.006046 9.772935-21.010009 11.168798-46.319503 7.110175-68.894167-0.806035-4.48345 6.048106-6.398968 6.857934-1.888967" fill="#1D1D1D" p-id="3595"></path><path d="M621.47804 591.3906c-13.973799 20.54725-47.946745 22.718803-47.946745 22.718803s5.532244-8.492762 0-17.186559c0 0-4.997416 10.46897-15.272937 15.210351l-18.172767-20.742595" fill="#B7D9D5" p-id="3596"></path><path d="M624.548559 593.184738c-11.68466 15.760352-31.900014 23.115182-51.017264 24.480701-2.744312 0.195345-4.360174-3.15207-3.070518-5.352072 2.480691-4.233105 2.399139-8.513624 0-13.596385h6.141037c-3.611036 7.159486-9.564314 12.716385-16.547421 16.486731-1.342759 0.72638-3.239312 0.663793-4.307071-0.555689-6.059485-6.914831-12.118971-13.825868-18.176559-20.742596-3.011725-3.434657 1.998966-8.485176 5.027761-5.02776l18.176559 20.742595-4.310864-0.557587c6.000692-3.237415 10.905177-7.808107 13.996558-13.933971 1.147414-2.275863 5.022071-2.370691 6.141037 0 3.279139 6.945175 4.039657 13.875178 0 20.774836l-3.070519-5.352071c16.34449-1.168276 34.85105-7.434486 44.87433-20.956906 2.700691-3.637588 8.879659-0.098621 6.142934 3.590174" fill="#1D1D1D" p-id="3597"></path></svg>